<svg version="1.0" preserveAspectRatio="xMidYMid meet" viewBox="34.5 143.999996544 305.25 104.24999749800001" zoomAndPan="magnify" xmlns:xlink="http://www.w3.org/1999/xlink" xmlns="http://www.w3.org/2000/svg" style="max-height: 500px" width="305.25" height="104.24999749800001"><defs><g/><clipPath id="04172f4031"><path clip-rule="nonzero" d="M 132 147 L 191 147 L 191 206 L 132 206 Z M 132 147"/></clipPath><clipPath id="56929122a8"><path clip-rule="nonzero" d="M 135.460938 143.988281 L 223.472656 153.871094 L 213.679688 241.109375 L 125.664062 231.226562 Z M 135.460938 143.988281"/></clipPath><clipPath id="1d2cd75857"><path clip-rule="nonzero" d="M 135.460938 143.988281 L 223.472656 153.871094 L 213.679688 241.109375 L 125.664062 231.226562 Z M 135.460938 143.988281"/></clipPath><clipPath id="0eaab7ecf9"><path clip-rule="nonzero" d="M 176 199 L 191 199 L 191 212 L 176 212 Z M 176 199"/></clipPath><clipPath id="9ba65728f2"><path clip-rule="nonzero" d="M 135.460938 143.988281 L 223.472656 153.871094 L 213.679688 241.109375 L 125.664062 231.226562 Z M 135.460938 143.988281"/></clipPath><clipPath id="3e6b43861c"><path clip-rule="nonzero" d="M 135.460938 143.988281 L 223.472656 153.871094 L 213.679688 241.109375 L 125.664062 231.226562 Z M 135.460938 143.988281"/></clipPath><clipPath id="aec90f8d21"><path clip-rule="nonzero" d="M 186 208 L 214 208 L 214 241 L 186 241 Z M 186 208"/></clipPath><clipPath id="fb24fe31ab"><path clip-rule="nonzero" d="M 135.460938 143.988281 L 223.472656 153.871094 L 213.679688 241.109375 L 125.664062 231.226562 Z M 135.460938 143.988281"/></clipPath><clipPath id="c50fb11e88"><path clip-rule="nonzero" d="M 135.460938 143.988281 L 223.472656 153.871094 L 213.679688 241.109375 L 125.664062 231.226562 Z M 135.460938 143.988281"/></clipPath><clipPath id="73d78e907f"><path clip-rule="nonzero" d="M 140 164 L 168 164 L 168 198 L 140 198 Z M 140 164"/></clipPath><clipPath id="189b9f59cc"><path clip-rule="nonzero" d="M 135.460938 143.988281 L 223.472656 153.871094 L 213.679688 241.109375 L 125.664062 231.226562 Z M 135.460938 143.988281"/></clipPath><clipPath id="1bb041c7e0"><path clip-rule="nonzero" d="M 135.460938 143.988281 L 223.472656 153.871094 L 213.679688 241.109375 L 125.664062 231.226562 Z M 135.460938 143.988281"/></clipPath></defs><g clip-path="url(#04172f4031)"><g clip-path="url(#56929122a8)"><g clip-path="url(#1d2cd75857)"><path fill-rule="nonzero" fill-opacity="1" d="M 158.164062 205.753906 C 142.042969 203.945312 130.398438 189.355469 132.207031 173.230469 C 134.019531 157.105469 148.605469 145.460938 164.730469 147.273438 C 180.855469 149.082031 192.5 163.671875 190.6875 179.796875 C 188.878906 195.921875 174.289062 207.5625 158.164062 205.753906 Z M 164.191406 152.082031 C 163.390625 151.992188 162.589844 151.941406 161.785156 151.929688 C 160.980469 151.917969 160.175781 151.949219 159.371094 152.015625 C 158.570312 152.085938 157.773438 152.191406 156.980469 152.335938 C 156.191406 152.484375 155.40625 152.667969 154.632812 152.890625 C 153.859375 153.117188 153.097656 153.375 152.351562 153.671875 C 151.601562 153.972656 150.871094 154.304688 150.15625 154.675781 C 149.441406 155.046875 148.746094 155.449219 148.070312 155.886719 C 147.394531 156.324219 146.742188 156.796875 146.113281 157.296875 C 145.484375 157.800781 144.878906 158.332031 144.304688 158.894531 C 143.726562 159.457031 143.179688 160.042969 142.660156 160.660156 C 142.140625 161.273438 141.652344 161.914062 141.195312 162.578125 C 140.738281 163.242188 140.316406 163.925781 139.925781 164.628906 C 139.539062 165.335938 139.183594 166.058594 138.867188 166.796875 C 138.546875 167.535156 138.265625 168.289062 138.023438 169.058594 C 137.777344 169.824219 137.570312 170.601562 137.402344 171.390625 C 137.234375 172.175781 137.105469 172.96875 137.015625 173.769531 C 136.925781 174.570312 136.878906 175.375 136.867188 176.179688 C 136.855469 176.984375 136.882812 177.785156 136.953125 178.589844 C 137.019531 179.390625 137.125 180.1875 137.273438 180.980469 C 137.417969 181.773438 137.605469 182.554688 137.828125 183.328125 C 138.050781 184.101562 138.3125 184.863281 138.609375 185.609375 C 138.90625 186.359375 139.242188 187.089844 139.609375 187.804688 C 139.980469 188.519531 140.382812 189.214844 140.824219 189.890625 C 141.261719 190.566406 141.730469 191.21875 142.234375 191.847656 C 142.734375 192.480469 143.265625 193.082031 143.828125 193.660156 C 144.390625 194.234375 144.980469 194.785156 145.59375 195.304688 C 146.210938 195.824219 146.847656 196.308594 147.511719 196.765625 C 148.175781 197.222656 148.859375 197.644531 149.566406 198.035156 C 150.269531 198.425781 150.992188 198.777344 151.730469 199.097656 C 152.472656 199.414062 153.226562 199.695312 153.992188 199.941406 C 154.757812 200.183594 155.535156 200.390625 156.324219 200.558594 C 157.113281 200.726562 157.90625 200.855469 158.707031 200.945312 C 159.503906 201.035156 160.308594 201.085938 161.113281 201.097656 C 161.917969 201.105469 162.722656 201.078125 163.523438 201.011719 C 164.328125 200.941406 165.125 200.835938 165.914062 200.6875 C 166.707031 200.542969 167.488281 200.359375 168.265625 200.132812 C 169.039062 199.910156 169.796875 199.652344 170.546875 199.351562 C 171.292969 199.054688 172.027344 198.722656 172.742188 198.351562 C 173.457031 197.980469 174.152344 197.578125 174.828125 197.140625 C 175.503906 196.699219 176.15625 196.230469 176.785156 195.730469 C 177.414062 195.226562 178.015625 194.695312 178.59375 194.132812 C 179.171875 193.570312 179.71875 192.984375 180.238281 192.367188 C 180.757812 191.753906 181.246094 191.113281 181.703125 190.449219 C 182.160156 189.785156 182.582031 189.101562 182.96875 188.398438 C 183.359375 187.691406 183.714844 186.96875 184.03125 186.230469 C 184.351562 185.492188 184.632812 184.738281 184.875 183.96875 C 185.121094 183.203125 185.324219 182.425781 185.492188 181.636719 C 185.660156 180.851562 185.789062 180.054688 185.878906 179.257812 C 185.96875 178.457031 186.019531 177.652344 186.027344 176.847656 C 186.039062 176.042969 186.007812 175.242188 185.941406 174.4375 C 185.871094 173.636719 185.761719 172.839844 185.617188 172.050781 C 185.46875 171.257812 185.285156 170.476562 185.0625 169.703125 C 184.835938 168.929688 184.578125 168.167969 184.277344 167.421875 C 183.980469 166.675781 183.644531 165.941406 183.277344 165.226562 C 182.90625 164.511719 182.5 163.816406 182.0625 163.144531 C 181.625 162.46875 181.15625 161.816406 180.652344 161.1875 C 180.152344 160.558594 179.621094 159.953125 179.058594 159.378906 C 178.496094 158.800781 177.910156 158.253906 177.292969 157.734375 C 176.679688 157.214844 176.039062 156.726562 175.375 156.269531 C 174.714844 155.8125 174.03125 155.390625 173.324219 155 C 172.621094 154.613281 171.898438 154.257812 171.160156 153.941406 C 170.421875 153.621094 169.667969 153.339844 168.902344 153.09375 C 168.136719 152.851562 167.359375 152.644531 166.570312 152.476562 C 165.785156 152.304688 164.992188 152.175781 164.191406 152.085938 Z M 164.191406 152.082031" fill="#6767c4"/></g></g></g><g clip-path="url(#0eaab7ecf9)"><g clip-path="url(#9ba65728f2)"><g clip-path="url(#3e6b43861c)"><path fill-rule="nonzero" fill-opacity="1" d="M 178.925781 211.285156 C 178.382812 211.222656 177.902344 211.019531 177.480469 210.664062 C 177.0625 210.3125 176.777344 209.875 176.625 209.347656 C 176.472656 208.824219 176.476562 208.300781 176.644531 207.777344 C 176.808594 207.257812 177.101562 206.824219 177.527344 206.480469 L 185.816406 199.8125 C 186.09375 199.5625 186.410156 199.378906 186.761719 199.257812 C 187.113281 199.136719 187.476562 199.089844 187.847656 199.117188 C 188.21875 199.144531 188.570312 199.246094 188.902344 199.421875 C 189.230469 199.59375 189.515625 199.828125 189.75 200.117188 C 189.984375 200.40625 190.152344 200.730469 190.25 201.089844 C 190.351562 201.449219 190.375 201.816406 190.324219 202.183594 C 190.277344 202.554688 190.152344 202.898438 189.960938 203.21875 C 189.769531 203.539062 189.519531 203.804688 189.21875 204.023438 L 180.929688 210.691406 C 180.34375 211.167969 179.675781 211.367188 178.925781 211.285156 Z M 178.925781 211.285156" fill="#6767c4"/></g></g></g><g clip-path="url(#aec90f8d21)"><g clip-path="url(#fb24fe31ab)"><g clip-path="url(#c50fb11e88)"><path fill-rule="nonzero" fill-opacity="1" d="M 208.40625 240.167969 C 207.78125 240.097656 207.199219 239.914062 206.652344 239.605469 C 206.105469 239.300781 205.640625 238.902344 205.257812 238.410156 L 187.722656 215.890625 C 187.535156 215.652344 187.371094 215.394531 187.234375 215.121094 C 187.097656 214.851562 186.988281 214.566406 186.90625 214.273438 C 186.828125 213.976562 186.773438 213.679688 186.753906 213.375 C 186.730469 213.070312 186.738281 212.765625 186.777344 212.464844 C 186.8125 212.160156 186.878906 211.863281 186.976562 211.574219 C 187.070312 211.285156 187.195312 211.007812 187.34375 210.742188 C 187.496094 210.476562 187.671875 210.230469 187.871094 210 C 188.070312 209.765625 188.289062 209.558594 188.53125 209.371094 C 188.769531 209.183594 189.027344 209.019531 189.300781 208.882812 C 189.574219 208.746094 189.855469 208.636719 190.152344 208.558594 C 190.445312 208.476562 190.742188 208.421875 191.046875 208.402344 C 191.351562 208.378906 191.65625 208.386719 191.960938 208.425781 C 192.261719 208.460938 192.558594 208.527344 192.847656 208.625 C 193.136719 208.722656 193.414062 208.84375 193.679688 208.996094 C 193.945312 209.144531 194.195312 209.320312 194.425781 209.519531 C 194.65625 209.71875 194.863281 209.9375 195.050781 210.179688 L 212.589844 232.695312 C 212.871094 233.054688 213.09375 233.449219 213.257812 233.875 C 213.421875 234.304688 213.519531 234.742188 213.554688 235.199219 C 213.589844 235.65625 213.558594 236.105469 213.460938 236.554688 C 213.363281 237 213.199219 237.421875 212.976562 237.820312 C 212.753906 238.21875 212.476562 238.578125 212.148438 238.894531 C 211.820312 239.210938 211.453125 239.476562 211.046875 239.683594 C 210.636719 239.894531 210.210938 240.039062 209.761719 240.121094 C 209.3125 240.203125 208.859375 240.21875 208.40625 240.167969 Z M 208.40625 240.167969" fill="#6767c4"/></g></g></g><g clip-path="url(#73d78e907f)"><g clip-path="url(#189b9f59cc)"><g clip-path="url(#1bb041c7e0)"><path fill-rule="nonzero" fill-opacity="1" d="M 159.089844 197.101562 C 155.320312 196.679688 150.464844 195.042969 145.59375 190.34375 C 141.320312 186.222656 139.785156 180.445312 141.152344 173.640625 C 141.796875 170.496094 142.898438 167.523438 144.453125 164.714844 C 144.550781 164.546875 144.675781 164.410156 144.832031 164.292969 C 144.984375 164.179688 145.15625 164.097656 145.339844 164.050781 C 145.527344 164.003906 145.714844 163.992188 145.902344 164.019531 C 146.09375 164.046875 146.269531 164.109375 146.4375 164.207031 C 146.601562 164.304688 146.742188 164.429688 146.859375 164.582031 C 146.972656 164.734375 147.054688 164.90625 147.105469 165.089844 C 147.152344 165.277344 147.164062 165.464844 147.136719 165.65625 C 147.113281 165.84375 147.050781 166.023438 146.953125 166.1875 C 145.558594 168.738281 144.570312 171.4375 143.984375 174.285156 C 142.832031 180.113281 144.050781 184.808594 147.609375 188.25 C 156.398438 196.730469 165.050781 193.832031 165.140625 193.800781 C 165.320312 193.730469 165.511719 193.699219 165.707031 193.707031 C 165.902344 193.714844 166.085938 193.761719 166.265625 193.84375 C 166.441406 193.925781 166.59375 194.039062 166.726562 194.183594 C 166.855469 194.328125 166.953125 194.496094 167.019531 194.679688 C 167.082031 194.863281 167.109375 195.050781 167.097656 195.246094 C 167.085938 195.441406 167.035156 195.625 166.949219 195.800781 C 166.863281 195.976562 166.746094 196.128906 166.597656 196.257812 C 166.453125 196.382812 166.285156 196.476562 166.101562 196.539062 C 165.882812 196.621094 163.105469 197.554688 159.089844 197.101562 Z M 159.089844 197.101562" fill="#6767c4"/></g></g></g><g fill-opacity="1" fill="#6767c4"><g transform="translate(184.163709, 195.941189)"><g><path d="M 23.171875 0.78125 C 19.398438 0.78125 16.046875 0.0195312 13.109375 -1.5 C 10.179688 -3.019531 7.894531 -5.1875 6.25 -8 C 4.601562 -10.820312 3.78125 -14.1875 3.78125 -18.09375 L 3.78125 -45.5625 L 14.578125 -45.5625 L 14.578125 -17.515625 C 14.578125 -15.816406 14.921875 -14.285156 15.609375 -12.921875 C 16.304688 -11.554688 17.304688 -10.472656 18.609375 -9.671875 C 19.910156 -8.867188 21.429688 -8.46875 23.171875 -8.46875 C 24.953125 -8.46875 26.484375 -8.867188 27.765625 -9.671875 C 29.046875 -10.472656 30.03125 -11.554688 30.71875 -12.921875 C 31.414062 -14.285156 31.765625 -15.816406 31.765625 -17.515625 L 31.765625 -45.5625 L 42.578125 -45.5625 L 42.578125 -18.09375 C 42.578125 -14.1875 41.738281 -10.820312 40.0625 -8 C 38.394531 -5.1875 36.109375 -3.019531 33.203125 -1.5 C 30.296875 0.0195312 26.953125 0.78125 23.171875 0.78125 Z M 23.171875 0.78125"/></g></g></g><g fill-opacity="1" fill="#6767c4"><g transform="translate(224.128097, 195.941189)"><g><path d="M 16.140625 0 C 13.578125 0 11.253906 -0.59375 9.171875 -1.78125 C 7.085938 -2.976562 5.425781 -4.585938 4.1875 -6.609375 C 2.957031 -8.628906 2.34375 -10.914062 2.34375 -13.46875 C 2.34375 -15.382812 2.765625 -17.175781 3.609375 -18.84375 C 4.453125 -20.507812 5.59375 -21.953125 7.03125 -23.171875 C 5.644531 -24.347656 4.546875 -25.738281 3.734375 -27.34375 C 2.929688 -28.945312 2.53125 -30.640625 2.53125 -32.421875 C 2.53125 -34.929688 3.140625 -37.171875 4.359375 -39.140625 C 5.578125 -41.117188 7.203125 -42.679688 9.234375 -43.828125 C 11.273438 -44.984375 13.535156 -45.5625 16.015625 -45.5625 L 35.21875 -45.5625 L 35.21875 -36.453125 L 17.703125 -36.453125 C 16.878906 -36.453125 16.117188 -36.253906 15.421875 -35.859375 C 14.734375 -35.472656 14.179688 -34.953125 13.765625 -34.296875 C 13.359375 -33.648438 13.15625 -32.894531 13.15625 -32.03125 C 13.15625 -31.207031 13.359375 -30.457031 13.765625 -29.78125 C 14.179688 -29.101562 14.734375 -28.582031 15.421875 -28.21875 C 16.117188 -27.851562 16.878906 -27.671875 17.703125 -27.671875 L 33 -27.671875 L 33 -18.546875 L 18.03125 -18.546875 C 17.113281 -18.546875 16.285156 -18.328125 15.546875 -17.890625 C 14.816406 -17.460938 14.234375 -16.898438 13.796875 -16.203125 C 13.367188 -15.515625 13.15625 -14.710938 13.15625 -13.796875 C 13.15625 -12.929688 13.367188 -12.140625 13.796875 -11.421875 C 14.234375 -10.703125 14.816406 -10.144531 15.546875 -9.75 C 16.285156 -9.363281 17.113281 -9.171875 18.03125 -9.171875 L 35.21875 -9.171875 L 35.21875 0 Z M 16.140625 0"/></g></g></g><g fill-opacity="1" fill="#6767c4"><g transform="translate(255.56561, 195.941189)"><g><path d="M 3.96875 0 L 3.96875 -45.5625 L 24.796875 -45.5625 C 27.878906 -45.5625 30.6875 -44.890625 33.21875 -43.546875 C 35.757812 -42.203125 37.78125 -40.335938 39.28125 -37.953125 C 40.78125 -35.566406 41.53125 -32.8125 41.53125 -29.6875 C 41.53125 -26.78125 40.832031 -24.164062 39.4375 -21.84375 C 38.050781 -19.519531 36.234375 -17.640625 33.984375 -16.203125 L 37.625 -10.03125 C 37.84375 -9.71875 38.09375 -9.472656 38.375 -9.296875 C 38.65625 -9.128906 39.035156 -9.046875 39.515625 -9.046875 L 43.546875 -9.046875 L 43.546875 0 L 37.171875 0 C 35.210938 0 33.429688 -0.460938 31.828125 -1.390625 C 30.222656 -2.328125 28.96875 -3.554688 28.0625 -5.078125 L 23.171875 -13.734375 C 22.867188 -13.734375 22.550781 -13.734375 22.21875 -13.734375 C 21.894531 -13.734375 21.5625 -13.734375 21.21875 -13.734375 L 14.90625 -13.734375 L 14.90625 0 Z M 14.90625 -22.78125 L 23.5625 -22.78125 C 24.820312 -22.78125 25.992188 -23.050781 27.078125 -23.59375 C 28.160156 -24.132812 29.015625 -24.914062 29.640625 -25.9375 C 30.273438 -26.957031 30.59375 -28.1875 30.59375 -29.625 C 30.59375 -31.050781 30.265625 -32.273438 29.609375 -33.296875 C 28.960938 -34.316406 28.109375 -35.097656 27.046875 -35.640625 C 25.984375 -36.179688 24.820312 -36.453125 23.5625 -36.453125 L 14.90625 -36.453125 Z M 14.90625 -22.78125"/></g></g></g><g fill-opacity="1" fill="#6767c4"><g transform="translate(293.772548, 195.941189)"><g><path d="M 17.515625 0 L 17.515625 -12.4375 C 14.734375 -13.082031 12.3125 -14.21875 10.25 -15.84375 C 8.1875 -17.476562 6.59375 -19.539062 5.46875 -22.03125 C 4.34375 -24.53125 3.78125 -27.40625 3.78125 -30.65625 L 3.78125 -45.5625 L 14.453125 -45.5625 L 14.453125 -30.078125 C 14.453125 -28.421875 14.796875 -26.910156 15.484375 -25.546875 C 16.179688 -24.179688 17.171875 -23.097656 18.453125 -22.296875 C 19.734375 -21.492188 21.242188 -21.09375 22.984375 -21.09375 C 24.710938 -21.09375 26.21875 -21.492188 27.5 -22.296875 C 28.78125 -23.097656 29.765625 -24.179688 30.453125 -25.546875 C 31.148438 -26.910156 31.5 -28.421875 31.5 -30.078125 L 31.5 -45.5625 L 42.1875 -45.5625 L 42.1875 -30.65625 C 42.1875 -27.40625 41.617188 -24.53125 40.484375 -22.03125 C 39.359375 -19.539062 37.753906 -17.46875 35.671875 -15.8125 C 33.585938 -14.164062 31.15625 -13.039062 28.375 -12.4375 L 28.375 0 Z M 17.515625 0"/></g></g></g><g fill-opacity="1" fill="#6767c4"><g transform="translate(34.354727, 195.937745)"><g><path d="M 3.96875 0 L 3.96875 -45.5625 L 30.40625 -45.5625 C 32.65625 -45.5625 34.703125 -45.0625 36.546875 -44.0625 C 38.390625 -43.070312 39.863281 -41.6875 40.96875 -39.90625 C 42.082031 -38.125 42.640625 -36.019531 42.640625 -33.59375 C 42.640625 -32.15625 42.367188 -30.785156 41.828125 -29.484375 C 41.285156 -28.179688 40.523438 -27.03125 39.546875 -26.03125 C 38.566406 -25.039062 37.445312 -24.238281 36.1875 -23.625 C 37.664062 -23.019531 38.976562 -22.148438 40.125 -21.015625 C 41.28125 -19.890625 42.191406 -18.585938 42.859375 -17.109375 C 43.535156 -15.640625 43.875 -14.0625 43.875 -12.375 C 43.875 -9.894531 43.296875 -7.722656 42.140625 -5.859375 C 40.992188 -3.992188 39.460938 -2.550781 37.546875 -1.53125 C 35.640625 -0.507812 33.519531 0 31.1875 0 Z M 14.90625 -9.046875 L 28.3125 -9.046875 C 29.226562 -9.046875 30.039062 -9.257812 30.75 -9.6875 C 31.46875 -10.125 32.039062 -10.710938 32.46875 -11.453125 C 32.90625 -12.191406 33.125 -12.992188 33.125 -13.859375 C 33.125 -14.773438 32.90625 -15.585938 32.46875 -16.296875 C 32.039062 -17.015625 31.46875 -17.59375 30.75 -18.03125 C 30.039062 -18.46875 29.226562 -18.6875 28.3125 -18.6875 L 14.90625 -18.6875 Z M 14.90625 -27.40625 L 27.203125 -27.40625 C 28.078125 -27.40625 28.847656 -27.609375 29.515625 -28.015625 C 30.191406 -28.429688 30.722656 -28.972656 31.109375 -29.640625 C 31.503906 -30.316406 31.703125 -31.066406 31.703125 -31.890625 C 31.703125 -32.765625 31.503906 -33.535156 31.109375 -34.203125 C 30.722656 -34.878906 30.191406 -35.421875 29.515625 -35.828125 C 28.847656 -36.242188 28.078125 -36.453125 27.203125 -36.453125 L 14.90625 -36.453125 Z M 14.90625 -27.40625"/></g></g></g><g fill-opacity="1" fill="#6767c4"><g transform="translate(74.254019, 195.937745)"><g><path d="M 2.921875 0 L 2.921875 -9.109375 L 10.8125 -9.109375 L 10.8125 -36.453125 L 2.921875 -36.453125 L 2.921875 -45.5625 L 29.546875 -45.5625 L 29.546875 -36.453125 L 21.671875 -36.453125 L 21.671875 -9.109375 L 29.546875 -9.109375 L 29.546875 0 Z M 2.921875 0"/></g></g></g><g fill-opacity="1" fill="#6767c4"><g transform="translate(100.419199, 195.937745)"><g><path d="M 12.375 0 C 9.289062 0 6.789062 -0.929688 4.875 -2.796875 C 2.96875 -4.660156 2.015625 -7.046875 2.015625 -9.953125 C 2.015625 -11.347656 2.296875 -12.6875 2.859375 -13.96875 C 3.421875 -15.25 4.351562 -16.453125 5.65625 -17.578125 L 25.0625 -34.890625 C 25.144531 -34.972656 25.21875 -35.066406 25.28125 -35.171875 C 25.351562 -35.285156 25.390625 -35.410156 25.390625 -35.546875 C 25.390625 -35.710938 25.332031 -35.867188 25.21875 -36.015625 C 25.113281 -36.171875 24.984375 -36.289062 24.828125 -36.375 C 24.679688 -36.46875 24.519531 -36.515625 24.34375 -36.515625 L 3.125 -36.515625 L 3.125 -45.5625 L 26.75 -45.5625 C 28.832031 -45.5625 30.644531 -45.140625 32.1875 -44.296875 C 33.726562 -43.453125 34.929688 -42.28125 35.796875 -40.78125 C 36.671875 -39.28125 37.109375 -37.554688 37.109375 -35.609375 C 37.109375 -34.210938 36.832031 -32.875 36.28125 -31.59375 C 35.738281 -30.320312 34.882812 -29.164062 33.71875 -28.125 L 14.0625 -10.734375 C 14.019531 -10.691406 13.960938 -10.628906 13.890625 -10.546875 C 13.828125 -10.460938 13.785156 -10.382812 13.765625 -10.3125 C 13.742188 -10.25 13.734375 -10.15625 13.734375 -10.03125 C 13.734375 -9.851562 13.773438 -9.6875 13.859375 -9.53125 C 13.953125 -9.382812 14.082031 -9.265625 14.25 -9.171875 C 14.425781 -9.085938 14.625 -9.046875 14.84375 -9.046875 L 37.421875 -9.046875 L 37.421875 0 Z M 12.375 0"/></g></g></g></svg>